<svg width="720" height="520" viewBox="0 0 720 520" fill="none" xmlns="http://www.w3.org/2000/svg">
  <rect width="720" height="520" rx="36" fill="#F6E6D0"/>
  <circle cx="360" cy="98" r="52" fill="#E4C6A4"/>
  <path d="M292 174C308 150 332 138 360 138C388 138 412 150 428 174L462 246C470 264 472 284 468 304L442 432H278L252 304C248 284 250 264 258 246L292 174Z" fill="#C4746D"/>
  <path d="M315 176H405L426 270C432 294 432 318 426 342L409 414H311L294 342C288 318 288 294 294 270L315 176Z" fill="#FFF5E8"/>
  <path d="M270 216L190 280" stroke="#254F43" stroke-width="16" stroke-linecap="round"/>
  <path d="M450 216L530 280" stroke="#254F43" stroke-width="16" stroke-linecap="round"/>
  <path d="M325 432L300 490" stroke="#254F43" stroke-width="16" stroke-linecap="round"/>
  <path d="M395 432L420 490" stroke="#254F43" stroke-width="16" stroke-linecap="round"/>
  <path d="M304 220C320 210 340 204 360 204C380 204 400 210 416 220" stroke="#A4722D" stroke-width="6" stroke-linecap="round"/>
  <path d="M294 268H426" stroke="#A4722D" stroke-width="6" stroke-dasharray="9 9"/>
  <path d="M280 332H440" stroke="#A4722D" stroke-width="6" stroke-dasharray="9 9"/>
  <path d="M263 208C302 180 418 180 457 208" stroke="#2B1C18" stroke-width="4" stroke-dasharray="4 8"/>
  <path d="M220 302C248 316 256 322 268 332" stroke="#2B1C18" stroke-width="4" stroke-dasharray="4 8"/>
  <path d="M500 302C472 316 464 322 452 332" stroke="#2B1C18" stroke-width="4" stroke-dasharray="4 8"/>
  <text x="520" y="198" fill="#2B1C18" font-family="sans-serif" font-size="24" font-weight="600">Chest</text>
  <text x="528" y="284" fill="#2B1C18" font-family="sans-serif" font-size="24" font-weight="600">Waist</text>
  <text x="132" y="292" fill="#2B1C18" font-family="sans-serif" font-size="24" font-weight="600">Sleeve</text>
  <text x="505" y="354" fill="#2B1C18" font-family="sans-serif" font-size="24" font-weight="600">Hips</text>
  <text x="498" y="120" fill="#2B1C18" font-family="sans-serif" font-size="24" font-weight="600">Neck</text>
</svg>
