<svg width="900" height="1200" viewBox="0 0 900 1200" fill="none" xmlns="http://www.w3.org/2000/svg">
  <rect width="900" height="1200" fill="#F6E6D0"/>
  <rect x="40" y="40" width="820" height="1120" rx="40" fill="url(#paint0_linear)"/>
  <circle cx="450" cy="150" r="78" fill="#F2D8BF"/>
  <path d="M364 258C364 214 400 178 444 178H456C500 178 536 214 536 258V400H364V258Z" fill="#8F4F4F"/>
  <path d="M328 330L238 920C346 964 554 964 662 920L572 330H328Z" fill="#D69A8C"/>
  <path d="M280 334C330 286 386 260 450 260C514 260 570 286 620 334L700 486L620 532L558 434C534 396 496 374 450 374C404 374 366 396 342 434L280 532L200 486L280 334Z" fill="#F5D7CC" fill-opacity="0.86"/>
  <path d="M450 246L516 324" stroke="#F9EBE3" stroke-width="16" stroke-linecap="round"/>
  <path d="M450 246L384 324" stroke="#F9EBE3" stroke-width="16" stroke-linecap="round"/>
  <text x="96" y="112" fill="#5D3030" font-family="serif" font-size="48">Pink City Cape</text>
  <text x="96" y="160" fill="#9D6A5B" font-family="sans-serif" font-size="24" letter-spacing="8">INDO WESTERN</text>
  <defs>
    <linearGradient id="paint0_linear" x1="120" y1="80" x2="760" y2="1120" gradientUnits="userSpaceOnUse">
      <stop stop-color="#F8EFE7"/>
      <stop offset="0.52" stop-color="#E2B7AB"/>
      <stop offset="1" stop-color="#A0635E"/>
    </linearGradient>
  </defs>
</svg>
